<svg width="17" height="25" viewBox="0 0 17 25" fill="none" xmlns="http://www.w3.org/2000/svg">
<path fill-rule="evenodd" clip-rule="evenodd" d="M16.5816 13.2509L15.73 9.4124L16.5816 5.57393C16.7157 4.96525 16.3612 4.35535 15.766 4.17048L12.0115 2.97096L9.12062 0.320018C8.66054 -0.106673 7.94935 -0.106673 7.48927 0.320018L4.59842 2.98296L0.84392 4.18248C0.254241 4.36699 -0.0988084 4.96926 0.0282454 5.57393L0.879906 9.4124L0.0282454 13.2509C-0.105756 13.8595 0.248714 14.4694 0.84392 14.6543L3.50686 15.494V23.8067C3.50913 24.2467 3.75217 24.6502 4.14011 24.8579C4.52806 25.0657 4.9986 25.0443 5.36612 24.8023L8.30495 22.847L11.2438 24.8023C11.6113 25.0443 12.0818 25.0657 12.4698 24.8579C12.8577 24.6502 13.1008 24.2467 13.103 23.8067V15.494L15.766 14.6543C16.3612 14.4694 16.7157 13.8595 16.5816 13.2509ZM7.64524 20.448L5.90593 21.6475V17.0414L7.4893 18.5048C7.71235 18.7075 8.00355 18.8189 8.30497 18.8166C8.60536 18.8133 8.89465 18.7027 9.12065 18.5048L10.704 17.0414V21.5636L8.96471 20.448C8.56439 20.1844 8.04556 20.1844 7.64524 20.448ZM10.584 13.9226C10.7169 13.8052 10.8719 13.7155 11.0399 13.6587L14.0027 12.6991L13.319 9.6763C13.2831 9.5022 13.2831 9.32261 13.319 9.14851L14.0027 6.12572L11.0399 5.20209C10.8719 5.14535 10.7169 5.05563 10.584 4.93819L8.30496 2.83903L6.02586 4.93819C5.89301 5.05563 5.73804 5.14535 5.57004 5.20209L2.60723 6.12572L3.29095 9.14851C3.32683 9.32261 3.32683 9.5022 3.29095 9.6763L2.60723 12.6991L5.57004 13.6227C5.73804 13.6795 5.89301 13.7692 6.02586 13.8866L8.30496 15.9858L10.584 13.9226Z" fill="white"/>
</svg>
