<svg width="12" height="17" viewBox="0 0 12 17" fill="none" xmlns="http://www.w3.org/2000/svg">
<path d="M8.7471 6.51507V3.25273C8.7471 2.52412 8.45766 1.82535 7.94245 1.31014C7.42724 0.794932 6.72847 0.505492 5.99986 0.505492C5.27125 0.505492 4.57248 0.794932 4.05727 1.31014C3.54206 1.82535 3.25262 2.52412 3.25262 3.25273V6.51507" stroke="white" stroke-linecap="round" stroke-linejoin="round"/>
<path d="M9.8461 6.51507H2.15383C1.24348 6.51507 0.505492 7.25306 0.505492 8.16341V14.2073C0.505492 15.1177 1.24348 15.8557 2.15383 15.8557H9.8461C10.7565 15.8557 11.4944 15.1177 11.4944 14.2073V8.16341C11.4944 7.25306 10.7565 6.51507 9.8461 6.51507Z" stroke="white" stroke-linecap="round" stroke-linejoin="round"/>
</svg>
