<svg width="15" height="17" viewBox="0 0 15 17" fill="none" xmlns="http://www.w3.org/2000/svg">
<path d="M13.8783 12.1665C12.8916 10.9589 12.1951 10.3442 12.1951 7.01502C12.1951 3.96632 10.6383 2.88016 9.35691 2.35264C9.18671 2.28271 9.02649 2.12211 8.97462 1.94729C8.74986 1.18233 8.11976 0.508427 7.28218 0.508427C6.4446 0.508427 5.81411 1.18272 5.59165 1.94806C5.53979 2.1248 5.37957 2.28271 5.20937 2.35264C3.92649 2.88092 2.37121 3.96324 2.37121 7.01502C2.36928 10.3442 1.67271 10.9589 0.686061 12.1665C0.277261 12.6668 0.635345 13.4179 1.35036 13.4179H13.2178C13.929 13.4179 14.2848 12.6644 13.8783 12.1665Z" stroke="white" stroke-linecap="round" stroke-linejoin="round"/>
<path d="M9.74124 13.4179V14.0326C9.74124 14.6848 9.48217 15.3102 9.02103 15.7714C8.55989 16.2325 7.93445 16.4916 7.2823 16.4916C6.63014 16.4916 6.0047 16.2325 5.54356 15.7714C5.08242 15.3102 4.82335 14.6848 4.82335 14.0326V13.4179" stroke="white" stroke-linecap="round" stroke-linejoin="round"/>
</svg>
