<svg width="20" height="20" viewBox="0 0 20 20" fill="none" xmlns="http://www.w3.org/2000/svg">
<path d="M14.6354 17.9663C14.5003 17.9662 14.3672 17.9334 14.2476 17.8707L9.99994 15.6376L5.7523 17.8707C5.61465 17.943 5.45951 17.9754 5.30442 17.9642C5.14932 17.953 5.00046 17.8986 4.87465 17.8072C4.74884 17.7158 4.65111 17.5911 4.5925 17.447C4.53389 17.303 4.51674 17.1454 4.54299 16.9922L5.35435 12.2624L1.91807 8.91318C1.80676 8.80461 1.72802 8.66707 1.69077 8.5161C1.65353 8.36513 1.65925 8.20675 1.70729 8.05886C1.75533 7.91097 1.84378 7.77947 1.96264 7.67921C2.0815 7.57895 2.22604 7.51394 2.37991 7.49152L7.12885 6.80141L9.25244 2.49836C9.32919 2.3684 9.4385 2.2607 9.56958 2.18588C9.70066 2.11107 9.84899 2.07172 9.99992 2.07172C10.1508 2.07172 10.2992 2.11107 10.4302 2.18588C10.5613 2.2607 10.6706 2.3684 10.7474 2.49836L12.871 6.80133L17.6199 7.49144C17.7738 7.51386 17.9184 7.57888 18.0372 7.67913C18.1561 7.77939 18.2445 7.9109 18.2926 8.05879C18.3406 8.20668 18.3463 8.36506 18.3091 8.51603C18.2718 8.667 18.1931 8.80454 18.0818 8.91311L14.6455 12.2623L15.4569 16.9921C15.4774 17.1117 15.4715 17.2344 15.4397 17.3515C15.4078 17.4686 15.3508 17.5774 15.2726 17.6702C15.1943 17.7629 15.0967 17.8375 14.9867 17.8887C14.8766 17.9398 14.7567 17.9663 14.6353 17.9663L14.6354 17.9663Z" fill="#FFC700"/>
<path d="M18.2926 8.05865C18.2446 7.91079 18.1561 7.77932 18.0372 7.67909C17.9184 7.57886 17.7739 7.51386 17.62 7.49143L12.8711 6.80132L10.7475 2.49835C10.6751 2.36457 10.5668 2.25371 10.4347 2.17831C10.3026 2.10291 10.152 2.06597 10 2.07168V15.6376L14.2476 17.8707C14.3853 17.943 14.5404 17.9754 14.6955 17.9642C14.8506 17.953 14.9995 17.8986 15.1253 17.8072C15.2511 17.7158 15.3488 17.591 15.4074 17.447C15.4661 17.303 15.4832 17.1454 15.4569 16.9922L14.6456 12.2623L18.0819 8.91317C18.1932 8.80457 18.2719 8.66699 18.3092 8.51598C18.3464 8.36498 18.3407 8.20657 18.2926 8.05865Z" fill="#FFC700"/>
</svg>
