<svg width="117" height="20" viewBox="0 0 117 20" fill="none" xmlns="http://www.w3.org/2000/svg">
<path d="M14.6354 17.9663C14.5003 17.9663 14.3672 17.9334 14.2476 17.8707L9.99994 15.6376L5.7523 17.8707C5.61465 17.943 5.45951 17.9754 5.30442 17.9642C5.14932 17.953 5.00046 17.8986 4.87465 17.8072C4.74884 17.7159 4.65111 17.5911 4.5925 17.4471C4.53389 17.303 4.51674 17.1455 4.54299 16.9922L5.35435 12.2624L1.91807 8.91321C1.80676 8.80464 1.72802 8.6671 1.69077 8.51613C1.65353 8.36516 1.65925 8.20678 1.70729 8.05889C1.75533 7.911 1.84378 7.7795 1.96264 7.67924C2.0815 7.57898 2.22604 7.51397 2.37991 7.49155L7.12885 6.80144L9.25244 2.49839C9.32919 2.36843 9.4385 2.26073 9.56958 2.18591C9.70066 2.1111 9.84899 2.07175 9.99992 2.07175C10.1508 2.07175 10.2992 2.1111 10.4302 2.18591C10.5613 2.26073 10.6706 2.36843 10.7474 2.49839L12.871 6.80136L17.6199 7.49147C17.7738 7.51389 17.9184 7.57891 18.0372 7.67916C18.1561 7.77942 18.2445 7.91093 18.2926 8.05882C18.3406 8.20671 18.3463 8.36509 18.3091 8.51606C18.2718 8.66703 18.1931 8.80457 18.0818 8.91314L14.6455 12.2623L15.4569 16.9921C15.4774 17.1117 15.4715 17.2344 15.4397 17.3515C15.4078 17.4687 15.3508 17.5774 15.2726 17.6702C15.1943 17.763 15.0968 17.8375 14.9867 17.8887C14.8766 17.9398 14.7567 17.9663 14.6353 17.9663L14.6354 17.9663Z" fill="#FFC700"/>
<path d="M18.2926 8.05868C18.2446 7.91082 18.1561 7.77935 18.0373 7.67912C17.9184 7.57889 17.7739 7.51389 17.62 7.49146L12.8711 6.80135L10.7475 2.49838C10.6751 2.3646 10.5668 2.25374 10.4347 2.17834C10.3026 2.10294 10.152 2.066 10 2.07171V15.6376L14.2476 17.8707C14.3853 17.943 14.5404 17.9754 14.6955 17.9642C14.8506 17.953 14.9995 17.8986 15.1253 17.8072C15.2511 17.7158 15.3488 17.5911 15.4074 17.447C15.4661 17.303 15.4832 17.1455 15.4569 16.9922L14.6456 12.2624L18.0819 8.9132C18.1932 8.8046 18.2719 8.66702 18.3092 8.51601C18.3464 8.36501 18.3407 8.2066 18.2926 8.05868Z" fill="#FFC700"/>
<path d="M38.8021 17.9663C38.667 17.9663 38.534 17.9334 38.4143 17.8707L34.1667 15.6376L29.919 17.8707C29.7814 17.943 29.6263 17.9754 29.4712 17.9642C29.3161 17.953 29.1672 17.8986 29.0414 17.8072C28.9156 17.7159 28.8179 17.5911 28.7592 17.4471C28.7006 17.303 28.6835 17.1455 28.7097 16.9922L29.5211 12.2624L26.0848 8.91321C25.9735 8.80464 25.8948 8.6671 25.8575 8.51613C25.8203 8.36516 25.826 8.20678 25.874 8.05889C25.9221 7.911 26.0105 7.7795 26.1294 7.67924C26.2483 7.57898 26.3928 7.51397 26.5467 7.49155L31.2956 6.80144L33.4192 2.49839C33.4959 2.36843 33.6053 2.26073 33.7363 2.18591C33.8674 2.1111 34.0157 2.07175 34.1667 2.07175C34.3176 2.07175 34.4659 2.1111 34.597 2.18591C34.7281 2.26073 34.8374 2.36843 34.9141 2.49839L37.0378 6.80136L41.7867 7.49147C41.9406 7.51389 42.0851 7.57891 42.204 7.67916C42.3228 7.77942 42.4113 7.91093 42.4593 8.05882C42.5074 8.20671 42.5131 8.36509 42.4758 8.51606C42.4386 8.66703 42.3598 8.80457 42.2485 8.91314L38.8123 12.2623L39.6236 16.9921C39.6441 17.1117 39.6383 17.2344 39.6064 17.3515C39.5746 17.4687 39.5176 17.5774 39.4393 17.6702C39.3611 17.763 39.2635 17.8375 39.1534 17.8887C39.0434 17.9398 38.9235 17.9663 38.8021 17.9663L38.8021 17.9663Z" fill="#FFC700"/>
<path d="M42.4594 8.05868C42.4113 7.91082 42.3229 7.77935 42.204 7.67912C42.0851 7.57889 41.9406 7.51389 41.7868 7.49146L37.0378 6.80135L34.9142 2.49838C34.8419 2.3646 34.7335 2.25374 34.6014 2.17834C34.4693 2.10294 34.3187 2.066 34.1667 2.07171V15.6376L38.4144 17.8707C38.552 17.943 38.7072 17.9754 38.8623 17.9642C39.0174 17.953 39.1662 17.8986 39.292 17.8072C39.4178 17.7158 39.5156 17.5911 39.5742 17.447C39.6328 17.303 39.6499 17.1455 39.6237 16.9922L38.8123 12.2624L42.2486 8.9132C42.3599 8.8046 42.4387 8.66702 42.4759 8.51601C42.5132 8.36501 42.5074 8.2066 42.4594 8.05868Z" fill="#FFC700"/>
<path d="M62.9686 17.9663C62.8335 17.9663 62.7005 17.9334 62.5808 17.8707L58.3332 15.6376L54.0856 17.8707C53.9479 17.943 53.7928 17.9754 53.6377 17.9642C53.4826 17.953 53.3337 17.8986 53.2079 17.8072C53.0821 17.7159 52.9844 17.5911 52.9257 17.4471C52.8671 17.303 52.85 17.1455 52.8762 16.9922L53.6876 12.2624L50.2513 8.91321C50.14 8.80464 50.0613 8.6671 50.024 8.51613C49.9868 8.36516 49.9925 8.20678 50.0405 8.05889C50.0886 7.911 50.177 7.7795 50.2959 7.67924C50.4148 7.57898 50.5593 7.51397 50.7132 7.49155L55.4621 6.80144L57.5857 2.49839C57.6624 2.36843 57.7718 2.26073 57.9028 2.18591C58.0339 2.1111 58.1822 2.07175 58.3332 2.07175C58.4841 2.07175 58.6324 2.1111 58.7635 2.18591C58.8946 2.26073 59.0039 2.36843 59.0806 2.49839L61.2043 6.80136L65.9532 7.49147C66.1071 7.51389 66.2516 7.57891 66.3705 7.67916C66.4893 7.77942 66.5778 7.91093 66.6258 8.05882C66.6739 8.20671 66.6796 8.36509 66.6423 8.51606C66.6051 8.66703 66.5264 8.80457 66.415 8.91314L62.9788 12.2623L63.7901 16.9921C63.8106 17.1117 63.8048 17.2344 63.7729 17.3515C63.7411 17.4687 63.6841 17.5774 63.6058 17.6702C63.5276 17.763 63.43 17.8375 63.3199 17.8887C63.2099 17.9398 63.09 17.9663 62.9686 17.9663L62.9686 17.9663Z" fill="#FFC700"/>
<path d="M66.6259 8.05868C66.5778 7.91082 66.4894 7.77935 66.3705 7.67912C66.2516 7.57889 66.1071 7.51389 65.9533 7.49146L61.2043 6.80135L59.0808 2.49838C59.0084 2.3646 58.9 2.25374 58.7679 2.17834C58.6358 2.10294 58.4852 2.066 58.3333 2.07171V15.6376L62.5809 17.8707C62.7185 17.943 62.8737 17.9754 63.0288 17.9642C63.1839 17.953 63.3327 17.8986 63.4585 17.8072C63.5844 17.7158 63.6821 17.5911 63.7407 17.447C63.7993 17.303 63.8165 17.1455 63.7902 16.9922L62.9788 12.2624L66.4151 8.9132C66.5264 8.8046 66.6052 8.66702 66.6424 8.51601C66.6797 8.36501 66.6739 8.2066 66.6259 8.05868Z" fill="#FFC700"/>
<path d="M87.1354 17.9663C87.0003 17.9663 86.8672 17.9334 86.7476 17.8707L82.4999 15.6376L78.2523 17.8707C78.1147 17.943 77.9595 17.9754 77.8044 17.9642C77.6493 17.953 77.5005 17.8986 77.3746 17.8072C77.2488 17.7159 77.1511 17.5911 77.0925 17.4471C77.0339 17.303 77.0167 17.1455 77.043 16.9922L77.8543 12.2624L74.4181 8.91321C74.3068 8.80464 74.228 8.6671 74.1908 8.51613C74.1535 8.36516 74.1592 8.20678 74.2073 8.05889C74.2553 7.911 74.3438 7.7795 74.4626 7.67924C74.5815 7.57898 74.726 7.51397 74.8799 7.49155L79.6288 6.80144L81.7524 2.49839C81.8292 2.36843 81.9385 2.26073 82.0696 2.18591C82.2007 2.1111 82.349 2.07175 82.4999 2.07175C82.6508 2.07175 82.7992 2.1111 82.9302 2.18591C83.0613 2.26073 83.1706 2.36843 83.2474 2.49839L85.371 6.80136L90.1199 7.49147C90.2738 7.51389 90.4184 7.57891 90.5372 7.67916C90.6561 7.77942 90.7445 7.91093 90.7926 8.05882C90.8406 8.20671 90.8463 8.36509 90.8091 8.51606C90.7718 8.66703 90.6931 8.80457 90.5818 8.91314L87.1455 12.2623L87.9569 16.9921C87.9774 17.1117 87.9715 17.2344 87.9397 17.3515C87.9078 17.4687 87.8508 17.5774 87.7726 17.6702C87.6943 17.763 87.5968 17.8375 87.4867 17.8887C87.3766 17.9398 87.2567 17.9663 87.1353 17.9663L87.1354 17.9663Z" fill="#FFC700"/>
<path d="M90.7926 8.05868C90.7446 7.91082 90.6561 7.77935 90.5373 7.67912C90.4184 7.57889 90.2739 7.51389 90.12 7.49146L85.3711 6.80135L83.2475 2.49838C83.1751 2.3646 83.0668 2.25374 82.9347 2.17834C82.8026 2.10294 82.652 2.066 82.5 2.07171V15.6376L86.7476 17.8707C86.8853 17.943 87.0404 17.9754 87.1955 17.9642C87.3506 17.953 87.4995 17.8986 87.6253 17.8072C87.7511 17.7158 87.8488 17.5911 87.9074 17.447C87.9661 17.303 87.9832 17.1455 87.9569 16.9922L87.1456 12.2624L90.5819 8.9132C90.6932 8.8046 90.7719 8.66702 90.8092 8.51601C90.8464 8.36501 90.8407 8.2066 90.7926 8.05868Z" fill="#888888"/>
<path d="M111.302 17.9663C111.167 17.9663 111.034 17.9334 110.914 17.8707L106.667 15.6376L102.419 17.8707C102.281 17.943 102.126 17.9754 101.971 17.9642C101.816 17.953 101.667 17.8986 101.541 17.8072C101.416 17.7159 101.318 17.5911 101.259 17.4471C101.201 17.303 101.183 17.1455 101.21 16.9922L102.021 12.2624L98.5848 8.91321C98.4735 8.80464 98.3948 8.6671 98.3575 8.51613C98.3203 8.36516 98.326 8.20678 98.374 8.05889C98.4221 7.911 98.5105 7.7795 98.6294 7.67924C98.7483 7.57898 98.8928 7.51397 99.0467 7.49155L103.796 6.80144L105.919 2.49839C105.996 2.36843 106.105 2.26073 106.236 2.18591C106.367 2.1111 106.516 2.07175 106.667 2.07175C106.818 2.07175 106.966 2.1111 107.097 2.18591C107.228 2.26073 107.337 2.36843 107.414 2.49839L109.538 6.80136L114.287 7.49147C114.441 7.51389 114.585 7.57891 114.704 7.67916C114.823 7.77942 114.911 7.91093 114.959 8.05882C115.007 8.20671 115.013 8.36509 114.976 8.51606C114.939 8.66703 114.86 8.80457 114.749 8.91314L111.312 12.2623L112.124 16.9921C112.144 17.1117 112.138 17.2344 112.106 17.3515C112.075 17.4687 112.018 17.5774 111.939 17.6702C111.861 17.763 111.763 17.8375 111.653 17.8887C111.543 17.9398 111.423 17.9663 111.302 17.9663L111.302 17.9663Z" fill="#888888"/>
<path d="M114.959 8.05868C114.911 7.91082 114.823 7.77935 114.704 7.67912C114.585 7.57889 114.441 7.51389 114.287 7.49146L109.538 6.80135L107.414 2.49838C107.342 2.3646 107.234 2.25374 107.101 2.17834C106.969 2.10294 106.819 2.066 106.667 2.07171V15.6376L110.914 17.8707C111.052 17.943 111.207 17.9754 111.362 17.9642C111.517 17.953 111.666 17.8986 111.792 17.8072C111.918 17.7158 112.016 17.5911 112.074 17.447C112.133 17.303 112.15 17.1455 112.124 16.9922L111.312 12.2624L114.749 8.9132C114.86 8.8046 114.939 8.66702 114.976 8.51601C115.013 8.36501 115.007 8.2066 114.959 8.05868Z" fill="#888888"/>
</svg>
