<svg width="48" height="48" viewBox="0 0 48 48" fill="none" xmlns="http://www.w3.org/2000/svg">
<path fill-rule="evenodd" clip-rule="evenodd" d="M4 24C4 12.9543 12.9543 4 24 4C29.3043 4 34.3914 6.10714 38.1421 9.85786C41.8929 13.6086 44 18.6957 44 24C44 35.0457 35.0457 44 24 44C12.9543 44 4 35.0457 4 24ZM26 26H34C35.1046 26 36 25.1046 36 24C36 22.8954 35.1046 22 34 22H26V14C26 12.8954 25.1046 12 24 12C22.8954 12 22 12.8954 22 14V22H14C12.8954 22 12 22.8954 12 24C12 25.1046 12.8954 26 14 26H22V34C22 35.1046 22.8954 36 24 36C25.1046 36 26 35.1046 26 34V26Z" fill="#991010"/>
</svg>
