<svg width="342" height="25" viewBox="0 0 342 25" fill="none" xmlns="http://www.w3.org/2000/svg">
<path d="M233.5 22.9732L233.5 22.9733C233.53 22.9907 233.564 23 233.599 23C233.653 23 233.704 22.9788 233.741 22.9412C233.779 22.9035 233.8 22.8525 233.8 22.7993L233.8 3.60109C233.8 3.60083 233.8 3.60058 233.8 3.60032C233.799 2.91098 233.525 2.25013 233.037 1.76267C232.55 1.27516 231.889 1.00089 231.199 1H221.601C220.911 1.00089 220.25 1.27516 219.763 1.76267C219.275 2.25019 219.001 2.91115 219 3.60059V22.7996C219 22.8347 219.009 22.8692 219.027 22.8996L218.164 23.3982L219.027 22.8996C219.044 22.9301 219.07 22.9554 219.1 22.973C219.131 22.9906 219.165 22.9998 219.2 22.9999C219.236 22.9999 219.27 22.9907 219.3 22.9732H233.5ZM233.5 22.9732L226.9 19.1669L226.4 18.8788L225.9 19.1669L219.301 22.9731L233.5 22.9732Z" stroke="white" stroke-width="2"/>
<path d="M17.0001 10.0239L11.0001 4.76393C10.4501 4.27198 9.73803 4 9.00009 4C8.26216 4 7.55012 4.27198 7.00009 4.76393L1.00009 10.0239C0.682463 10.308 0.428995 10.6565 0.256567 11.0462C0.0841385 11.4359 -0.00329256 11.8578 9.47941e-05 12.2839V21.0239C9.47941e-05 21.8196 0.316165 22.5826 0.878775 23.1453C1.44138 23.7079 2.20445 24.0239 3.00009 24.0239H15.0001C15.7957 24.0239 16.5588 23.7079 17.1214 23.1453C17.684 22.5826 18.0001 21.8196 18.0001 21.0239V12.2739C18.0021 11.8495 17.9139 11.4295 17.7416 11.0416C17.5692 10.6538 17.3165 10.3069 17.0001 10.0239ZM11.0001 21.0239C11.0001 21.5762 10.5524 22.0239 10.0001 22.0239H8.00009C7.44781 22.0239 7.00009 21.5762 7.00009 21.0239V17.0239C7.00009 16.7587 7.10545 16.5044 7.29299 16.3168C7.48052 16.1293 7.73488 16.0239 8.00009 16.0239H10.0001C10.2653 16.0239 10.5197 16.1293 10.7072 16.3168C10.8947 16.5044 11.0001 16.7587 11.0001 17.0239V21.0239ZM16.0001 21.0239C16.0001 21.2891 15.8947 21.5435 15.7072 21.731C15.5197 21.9186 15.2653 22.0239 15.0001 22.0239H13.0001V17.0239C13.0001 16.2283 12.684 15.4652 12.1214 14.9026C11.5588 14.34 10.7957 14.0239 10.0001 14.0239H8.00009C7.20444 14.0239 6.44138 14.34 5.87877 14.9026C5.31616 15.4652 5.00009 16.2283 5.00009 17.0239V22.0239H3.00009C2.73488 22.0239 2.48052 21.9186 2.29299 21.731C2.10545 21.5435 2.00009 21.2891 2.00009 21.0239V12.2739C2.00027 12.1319 2.03069 11.9916 2.08931 11.8623C2.14794 11.733 2.23343 11.6176 2.3401 11.5239L8.34009 6.27393C8.52258 6.11361 8.75719 6.0252 9.00009 6.0252C9.243 6.0252 9.47761 6.11361 9.66009 6.27393L15.6601 11.5239C15.7668 11.6176 15.8523 11.733 15.9109 11.8623C15.9695 11.9916 15.9999 12.1319 16.0001 12.2739V21.0239Z" fill="#C30C0C"/>
<path d="M133.731 20.3109L130.021 16.6309C131.461 14.8353 132.158 12.5562 131.97 10.2622C131.781 7.9682 130.721 5.83368 129.006 4.29754C127.292 2.76141 125.055 1.94041 122.754 2.00337C120.453 2.06633 118.264 3.00846 116.636 4.63604C115.008 6.26362 114.066 8.45294 114.003 10.7538C113.94 13.0547 114.761 15.2923 116.298 17.0064C117.834 18.7206 119.968 19.781 122.262 19.9697C124.556 20.1584 126.835 19.461 128.631 18.0209L132.311 21.7009C132.404 21.7946 132.514 21.869 132.636 21.9198C132.758 21.9706 132.889 21.9967 133.021 21.9967C133.153 21.9967 133.284 21.9706 133.405 21.9198C133.527 21.869 133.638 21.7946 133.731 21.7009C133.911 21.5144 134.012 21.2652 134.012 21.0059C134.012 20.7466 133.911 20.4974 133.731 20.3109ZM123.021 18.0209C121.636 18.0209 120.283 17.6104 119.132 16.8412C117.981 16.072 117.084 14.9788 116.554 13.6997C116.024 12.4206 115.885 11.0131 116.155 9.65527C116.425 8.2974 117.092 7.05012 118.071 6.07115C119.05 5.09219 120.297 4.4255 121.655 4.1554C123.013 3.88531 124.421 4.02393 125.7 4.55374C126.979 5.08356 128.072 5.98076 128.841 7.13191C129.61 8.28305 130.021 9.63643 130.021 11.0209C130.021 12.8774 129.283 14.6579 127.971 15.9706C126.658 17.2834 124.877 18.0209 123.021 18.0209Z" fill="white"/>
<path fill-rule="evenodd" clip-rule="evenodd" d="M341.182 8.52895L339.608 8.01249L340.353 6.5472C340.59 6.0849 340.503 5.52279 340.137 5.15398L336.846 1.85107C336.477 1.48534 335.915 1.39811 335.453 1.63488L333.988 2.39155L333.471 0.830177C333.304 0.314517 332.812 -0.0250501 332.27 0.00144767H327.67C327.128 -0.0250501 326.636 0.314517 326.469 0.830177L326.012 2.39155L324.547 1.63488C324.085 1.39811 323.523 1.48534 323.154 1.85107L319.851 5.15398C319.485 5.52279 319.398 6.0849 319.635 6.5472L320.392 8.01249L318.83 8.52895C318.315 8.69637 317.975 9.18849 318.001 9.73V14.3901C317.975 14.9316 318.315 15.4237 318.83 15.5912L320.392 16.1076L319.647 17.5729C319.41 18.0352 319.497 18.5973 319.863 18.9661L323.154 22.1489C323.523 22.5147 324.085 22.6019 324.547 22.3651L326.012 21.6084L326.529 23.1698C326.696 23.6855 327.188 24.025 327.73 23.9986H332.39C332.932 24.025 333.424 23.6855 333.591 23.1698L334.108 21.6084L335.573 22.3531C336.035 22.5899 336.597 22.5027 336.966 22.1369L340.269 18.834C340.635 18.4652 340.722 17.9031 340.485 17.4408L339.608 15.9875L341.17 15.4711C341.685 15.3036 342.025 14.8115 341.999 14.27V9.66995C342 9.1536 341.671 8.69418 341.182 8.52895ZM323.995 12C323.995 8.6834 326.683 5.99475 330 5.99475C331.593 5.99475 333.12 6.62744 334.246 7.75365C335.373 8.87986 336.005 10.4073 336.005 12C336.005 15.3167 333.317 18.0053 330 18.0053C326.683 18.0053 323.995 15.3167 323.995 12ZM326.397 12C326.397 13.9899 328.01 15.6031 330 15.6031C330.956 15.6031 331.872 15.2235 332.548 14.5478C333.224 13.8721 333.603 12.9556 333.603 12C333.603 10.01 331.99 8.3968 330 8.3968C328.01 8.3968 326.397 10.01 326.397 12ZM338.876 13.7055L339.608 13.4653V10.5347L338.876 10.2945C338.209 10.0792 337.669 9.58348 337.399 8.93727C337.132 8.28847 337.163 7.55577 337.483 6.93151L337.831 6.2349L335.765 4.16908L335.068 4.51739C334.444 4.83219 333.714 4.85932 333.068 4.5917C332.422 4.32408 331.924 3.78827 331.706 3.12416L331.465 2.39152H328.535L328.295 3.12416C328.076 3.78827 327.578 4.32408 326.932 4.5917C326.286 4.85932 325.556 4.83219 324.932 4.51739L324.235 4.16908L322.169 6.2349L322.517 6.93151C322.837 7.55577 322.868 8.28847 322.602 8.93727C322.331 9.58348 321.791 10.0792 321.124 10.2945L320.392 10.5347V13.4653L321.124 13.7055C321.791 13.9207 322.331 14.4165 322.602 15.0627C322.868 15.7115 322.837 16.4442 322.517 17.0684L322.169 17.765L324.235 19.8309L324.932 19.4825C325.556 19.1677 326.286 19.1406 326.932 19.4082C327.578 19.6759 328.076 20.2117 328.295 20.8758L328.535 21.6084H331.465L331.706 20.8758C331.924 20.2117 332.422 19.6759 333.068 19.4082C333.714 19.1406 334.444 19.1677 335.068 19.4825L335.765 19.8309L337.831 17.765L337.483 17.0684C337.163 16.4442 337.132 15.7115 337.399 15.0627C337.669 14.4165 338.209 13.9207 338.876 13.7055Z" fill="white"/>
</svg>
