<svg width="17" height="18" viewBox="0 0 17 18" fill="none" xmlns="http://www.w3.org/2000/svg">
<path d="M12.0064 4.5093L12.0064 4.50923C12.0878 3.40902 11.7442 2.40276 11.0568 1.66066C10.3779 0.927578 9.4259 0.5175 8.35725 0.5175C7.27998 0.5175 6.32503 0.926312 5.65097 1.65289L12.0064 4.5093ZM12.0064 4.5093C11.8401 6.76287 10.1411 8.48245 8.35725 8.48245C6.57304 8.48245 4.87145 6.76215 4.70771 4.50926L12.0064 4.5093ZM4.7077 4.50909C4.62717 3.39481 4.97022 2.38686 5.65094 1.65293L4.7077 4.50909Z" stroke="white"/>
<path d="M15.4353 17.4824V17.4824C15.5435 17.4838 15.6507 17.461 15.749 17.4158C15.8473 17.3705 15.9343 17.3039 16.0036 17.2208L16.0041 17.2203C16.1586 17.0355 16.2333 16.7678 16.1803 16.4748L16.1802 16.4745C15.8673 14.7388 14.894 13.2779 13.3417 12.243C11.9559 11.32 10.1856 10.8031 8.35733 10.8031C6.52897 10.8031 4.75874 11.3196 3.37306 12.243L15.4353 17.4824ZM15.4353 17.4824H15.4287M15.4353 17.4824H15.4287M15.4287 17.4824H1.28594V17.4823M15.4287 17.4824L1.28594 17.4823M1.28594 17.4823L1.27921 17.4824M1.28594 17.4823L1.27921 17.4824M1.27921 17.4824C1.171 17.4838 1.06385 17.4611 0.965535 17.4159C0.867223 17.3707 0.780226 17.3041 0.710875 17.2211L0.710547 17.2207M1.27921 17.4824L0.710547 17.2207M0.710547 17.2207C0.556021 17.0359 0.481401 16.7682 0.534384 16.4752L0.534432 16.4749M0.710547 17.2207L0.534432 16.4749M0.534432 16.4749C0.847315 14.7392 1.82056 13.2784 3.3729 12.2431L0.534432 16.4749Z" stroke="white"/>
</svg>
