<svg width="20" height="20" viewBox="0 0 20 20" fill="none" xmlns="http://www.w3.org/2000/svg">
<path d="M14.6354 17.9663C14.5003 17.9662 14.3672 17.9334 14.2476 17.8707L9.99994 15.6376L5.7523 17.8707C5.61465 17.943 5.45951 17.9754 5.30442 17.9642C5.14932 17.953 5.00046 17.8986 4.87465 17.8072C4.74884 17.7158 4.65111 17.5911 4.5925 17.447C4.53389 17.303 4.51674 17.1455 4.54299 16.9922L5.35435 12.2624L1.91807 8.9132C1.80676 8.80463 1.72802 8.66709 1.69077 8.51612C1.65353 8.36515 1.65925 8.20677 1.70729 8.05888C1.75533 7.91099 1.84378 7.77948 1.96264 7.67922C2.0815 7.57897 2.22604 7.51395 2.37991 7.49153L7.12885 6.80142L9.25244 2.49837C9.32919 2.36842 9.4385 2.26072 9.56958 2.1859C9.70066 2.11108 9.84899 2.07173 9.99992 2.07173C10.1508 2.07173 10.2992 2.11108 10.4302 2.1859C10.5613 2.26072 10.6706 2.36842 10.7474 2.49837L12.871 6.80135L17.6199 7.49146C17.7738 7.51388 17.9184 7.57889 18.0372 7.67915C18.1561 7.77941 18.2445 7.91091 18.2926 8.0588C18.3406 8.20669 18.3463 8.36507 18.3091 8.51604C18.2718 8.66701 18.1931 8.80455 18.0818 8.91312L14.6455 12.2623L15.4569 16.9921C15.4774 17.1117 15.4715 17.2344 15.4397 17.3515C15.4078 17.4686 15.3508 17.5774 15.2726 17.6702C15.1943 17.763 15.0967 17.8375 14.9867 17.8887C14.8766 17.9398 14.7567 17.9663 14.6353 17.9663L14.6354 17.9663Z" fill="#C30C0C"/>
<path d="M18.2926 8.05868C18.2446 7.91082 18.1561 7.77935 18.0372 7.67912C17.9184 7.57889 17.7739 7.51389 17.62 7.49146L12.8711 6.80135L10.7475 2.49838C10.6751 2.3646 10.5668 2.25374 10.4347 2.17834C10.3026 2.10294 10.152 2.066 10 2.07171V15.6376L14.2476 17.8707C14.3853 17.943 14.5404 17.9754 14.6955 17.9642C14.8506 17.953 14.9995 17.8986 15.1253 17.8072C15.2511 17.7158 15.3488 17.5911 15.4074 17.447C15.4661 17.303 15.4832 17.1455 15.4569 16.9922L14.6456 12.2624L18.0819 8.9132C18.1932 8.8046 18.2719 8.66702 18.3092 8.51601C18.3464 8.36501 18.3407 8.2066 18.2926 8.05868Z" fill="#C30C0C"/>
</svg>
