<svg width="54" height="54" viewBox="0 0 54 54" fill="none" xmlns="http://www.w3.org/2000/svg">
<path fill-rule="evenodd" clip-rule="evenodd" d="M54 8.1V45.9C54 50.3735 50.3735 54 45.9 54H8.1C3.62649 54 0 50.3735 0 45.9V8.1C0 3.62649 3.62649 0 8.1 0H45.9C50.3735 0 54 3.62649 54 8.1ZM43.2 27C43.2 28.4912 41.9912 29.7 40.5 29.7H29.7V40.5C29.7 41.9912 28.4912 43.2 27 43.2C25.5088 43.2 24.3 41.9912 24.3 40.5V29.7H13.5C12.0088 29.7 10.8 28.4912 10.8 27C10.8 25.5088 12.0088 24.3 13.5 24.3H24.3V13.5C24.3 12.0088 25.5088 10.8 27 10.8C28.4912 10.8 29.7 12.0088 29.7 13.5V24.3H40.5C41.9912 24.3 43.2 25.5088 43.2 27ZM45.9 5.4C47.3912 5.4 48.6 6.60883 48.6 8.1V45.9C48.6 47.3912 47.3912 48.6 45.9 48.6H8.1C6.60883 48.6 5.4 47.3912 5.4 45.9V8.1C5.4 6.60883 6.60883 5.4 8.1 5.4H45.9Z" fill="#991010"/>
</svg>
