<svg width="15" height="13" viewBox="0 0 15 13" fill="none" xmlns="http://www.w3.org/2000/svg">
<path d="M5.75292 3.4236V1.96773C5.75292 1.58161 5.90631 1.21131 6.17934 0.938277C6.45236 0.665249 6.82267 0.511863 7.20879 0.511863L13.0323 0.511863C13.4184 0.511863 13.7887 0.665249 14.0617 0.938277C14.3347 1.21131 14.4881 1.58161 14.4881 1.96773L14.4881 10.7029C14.4881 11.0891 14.3347 11.4594 14.0617 11.7324C13.7887 12.0054 13.4184 12.1588 13.0323 12.1588H7.49996C6.69596 12.1588 5.75292 11.5069 5.75292 10.7029V9.24707" stroke="white" stroke-linecap="round" stroke-linejoin="round"/>
<path d="M3.42364 3.42359L0.511909 6.33533L3.42364 9.24706" stroke="white" stroke-linecap="round" stroke-linejoin="round"/>
<path d="M10.4119 6.33532L1.09434 6.33532" stroke="white" stroke-linecap="round" stroke-linejoin="round"/>
</svg>
