<svg width="13" height="17" viewBox="0 0 13 17" fill="none" xmlns="http://www.w3.org/2000/svg">
<path d="M12.4983 6.99672V14.2978C12.4983 14.7751 12.3087 15.2328 11.9712 15.5702C11.6338 15.9077 11.1761 16.0973 10.6988 16.0973H2.30117C1.82392 16.0973 1.36621 15.9077 1.02874 15.5702C0.691266 15.2328 0.501677 14.7751 0.501677 14.2978V2.30117C0.501677 1.82392 0.691266 1.36621 1.02874 1.02874C1.36621 0.691266 1.82392 0.501677 2.30117 0.501677H6.00325C6.32131 0.501725 6.62634 0.628076 6.85127 0.852953L12.147 6.14871C12.3719 6.37364 12.4983 6.67866 12.4983 6.99672Z" stroke="white" stroke-linejoin="round"/>
<path d="M6.5 0.801599V5.30033C6.5 5.6185 6.62639 5.92364 6.85137 6.14862C7.07635 6.3736 7.38149 6.5 7.69966 6.5H12.1984" stroke="white" stroke-linecap="round" stroke-linejoin="round"/>
<path d="M3.50096 9.49915H9.49927" stroke="white" stroke-linecap="round" stroke-linejoin="round"/>
<path d="M3.50096 12.4983H9.49927" stroke="white" stroke-linecap="round" stroke-linejoin="round"/>
</svg>
