<svg width="140" height="24" viewBox="0 0 140 24" fill="none" xmlns="http://www.w3.org/2000/svg">
<path d="M17.5625 21.5596C17.4004 21.5595 17.2407 21.5201 17.0972 21.4448L12 18.7651L6.90283 21.4448C6.73766 21.5316 6.55149 21.5705 6.36537 21.5571C6.17926 21.5436 6.00062 21.4783 5.84965 21.3687C5.69868 21.259 5.5814 21.1093 5.51107 20.9364C5.44074 20.7636 5.42016 20.5745 5.45166 20.3906L6.42529 14.7148L2.30176 10.6958C2.16818 10.5656 2.0737 10.4005 2.029 10.2193C1.9843 10.0382 1.99117 9.84812 2.04882 9.67065C2.10647 9.49319 2.21261 9.33538 2.35524 9.21507C2.49788 9.09476 2.67132 9.01675 2.85596 8.98984L8.55469 8.16171L11.103 2.99805C11.1951 2.8421 11.3263 2.71286 11.4836 2.62308C11.6409 2.5333 11.8189 2.48608 12 2.48608C12.1811 2.48608 12.3591 2.5333 12.5164 2.62308C12.6737 2.71286 12.8048 2.8421 12.8969 2.99805L15.4453 8.16162L21.144 8.98975C21.3287 9.01666 21.5021 9.09467 21.6447 9.21498C21.7874 9.33529 21.8935 9.4931 21.9512 9.67056C22.0088 9.84803 22.0157 10.0381 21.971 10.2193C21.9263 10.4004 21.8318 10.5655 21.6982 10.6958L17.5747 14.7148L18.5483 20.3905C18.5729 20.5341 18.5659 20.6813 18.5277 20.8218C18.4895 20.9624 18.421 21.0929 18.3272 21.2042C18.2333 21.3155 18.1162 21.405 17.9841 21.4664C17.852 21.5278 17.7081 21.5596 17.5625 21.5595L17.5625 21.5596Z" fill="#C30C0C"/>
<path d="M21.9512 9.67041C21.8935 9.49298 21.7873 9.33522 21.6447 9.21494C21.5021 9.09466 21.3287 9.01666 21.144 8.98975L15.4453 8.16162L12.897 2.99805C12.8101 2.83752 12.6801 2.70449 12.5216 2.61401C12.3631 2.52353 12.1824 2.4792 12 2.48605V18.7651L17.0972 21.4448C17.2623 21.5316 17.4485 21.5705 17.6346 21.5571C17.8207 21.5436 17.9994 21.4783 18.1504 21.3687C18.3013 21.259 18.4186 21.1093 18.4889 20.9364C18.5593 20.7636 18.5798 20.5745 18.5483 20.3906L17.5747 14.7148L21.6982 10.6958C21.8318 10.5655 21.9263 10.4004 21.971 10.2192C22.0157 10.038 22.0088 9.84791 21.9512 9.67041Z" fill="#C30C0C"/>
<path d="M46.5625 21.5596C46.4004 21.5595 46.2407 21.5201 46.0972 21.4448L41 18.7651L35.9028 21.4448C35.7377 21.5316 35.5515 21.5705 35.3654 21.5571C35.1793 21.5436 35.0006 21.4783 34.8497 21.3687C34.6987 21.259 34.5814 21.1093 34.5111 20.9364C34.4407 20.7636 34.4202 20.5745 34.4517 20.3906L35.4253 14.7148L31.3018 10.6958C31.1682 10.5656 31.0737 10.4005 31.029 10.2193C30.9843 10.0382 30.9912 9.84812 31.0488 9.67065C31.1065 9.49319 31.2126 9.33538 31.3552 9.21507C31.4979 9.09476 31.6713 9.01675 31.856 8.98984L37.5547 8.16171L40.103 2.99805C40.1951 2.8421 40.3263 2.71286 40.4836 2.62308C40.6409 2.5333 40.8189 2.48608 41 2.48608C41.1811 2.48608 41.3591 2.5333 41.5164 2.62308C41.6737 2.71286 41.8048 2.8421 41.8969 2.99805L44.4453 8.16162L50.144 8.98975C50.3287 9.01666 50.5021 9.09467 50.6447 9.21498C50.7874 9.33529 50.8935 9.4931 50.9512 9.67056C51.0088 9.84803 51.0157 10.0381 50.971 10.2193C50.9263 10.4004 50.8318 10.5655 50.6982 10.6958L46.5747 14.7148L47.5483 20.3905C47.5729 20.5341 47.5659 20.6813 47.5277 20.8218C47.4895 20.9624 47.421 21.0929 47.3272 21.2042C47.2333 21.3155 47.1162 21.405 46.9841 21.4664C46.852 21.5278 46.7081 21.5596 46.5625 21.5595L46.5625 21.5596Z" fill="#C30C0C"/>
<path d="M50.9512 9.67041C50.8935 9.49298 50.7873 9.33522 50.6447 9.21494C50.5021 9.09466 50.3287 9.01666 50.144 8.98975L44.4453 8.16162L41.897 2.99805C41.8101 2.83752 41.6801 2.70449 41.5216 2.61401C41.3631 2.52353 41.1824 2.4792 41 2.48605V18.7651L46.0972 21.4448C46.2623 21.5316 46.4485 21.5705 46.6346 21.5571C46.8207 21.5436 46.9994 21.4783 47.1504 21.3687C47.3013 21.259 47.4186 21.1093 47.4889 20.9364C47.5593 20.7636 47.5798 20.5745 47.5483 20.3906L46.5747 14.7148L50.6982 10.6958C50.8318 10.5655 50.9263 10.4004 50.971 10.2192C51.0157 10.038 51.0088 9.84791 50.9512 9.67041Z" fill="#C30C0C"/>
<path d="M75.5625 21.5596C75.4004 21.5595 75.2407 21.5201 75.0972 21.4448L70 18.7651L64.9028 21.4448C64.7377 21.5316 64.5515 21.5705 64.3654 21.5571C64.1793 21.5436 64.0006 21.4783 63.8497 21.3687C63.6987 21.259 63.5814 21.1093 63.5111 20.9364C63.4407 20.7636 63.4202 20.5745 63.4517 20.3906L64.4253 14.7148L60.3018 10.6958C60.1682 10.5656 60.0737 10.4005 60.029 10.2193C59.9843 10.0382 59.9912 9.84812 60.0488 9.67065C60.1065 9.49319 60.2126 9.33538 60.3552 9.21507C60.4979 9.09476 60.6713 9.01675 60.856 8.98984L66.5547 8.16171L69.103 2.99805C69.1951 2.8421 69.3263 2.71286 69.4836 2.62308C69.6409 2.5333 69.8189 2.48608 70 2.48608C70.1811 2.48608 70.3591 2.5333 70.5164 2.62308C70.6737 2.71286 70.8048 2.8421 70.8969 2.99805L73.4453 8.16162L79.144 8.98975C79.3287 9.01666 79.5021 9.09467 79.6447 9.21498C79.7874 9.33529 79.8935 9.4931 79.9512 9.67056C80.0088 9.84803 80.0157 10.0381 79.971 10.2193C79.9263 10.4004 79.8318 10.5655 79.6982 10.6958L75.5747 14.7148L76.5483 20.3905C76.5729 20.5341 76.5659 20.6813 76.5277 20.8218C76.4895 20.9624 76.421 21.0929 76.3272 21.2042C76.2333 21.3155 76.1162 21.405 75.9841 21.4664C75.852 21.5278 75.7081 21.5596 75.5625 21.5595L75.5625 21.5596Z" fill="#C30C0C"/>
<path d="M79.9512 9.67041C79.8935 9.49298 79.7873 9.33522 79.6447 9.21494C79.5021 9.09466 79.3287 9.01666 79.144 8.98975L73.4453 8.16162L70.897 2.99805C70.8101 2.83752 70.6801 2.70449 70.5216 2.61401C70.3631 2.52353 70.1824 2.4792 70 2.48605V18.7651L75.0972 21.4448C75.2623 21.5316 75.4485 21.5705 75.6346 21.5571C75.8207 21.5436 75.9994 21.4783 76.1504 21.3687C76.3013 21.259 76.4186 21.1093 76.4889 20.9364C76.5593 20.7636 76.5798 20.5745 76.5483 20.3906L75.5747 14.7148L79.6982 10.6958C79.8318 10.5655 79.9263 10.4004 79.971 10.2192C80.0157 10.038 80.0088 9.84791 79.9512 9.67041Z" fill="#C30C0C"/>
<path d="M104.563 21.5596C104.4 21.5595 104.241 21.5201 104.097 21.4448L99 18.7651L93.9028 21.4448C93.7377 21.5316 93.5515 21.5705 93.3654 21.5571C93.1793 21.5436 93.0006 21.4783 92.8497 21.3687C92.6987 21.259 92.5814 21.1093 92.5111 20.9364C92.4407 20.7636 92.4202 20.5745 92.4517 20.3906L93.4253 14.7148L89.3018 10.6958C89.1682 10.5656 89.0737 10.4005 89.029 10.2193C88.9843 10.0382 88.9912 9.84812 89.0488 9.67065C89.1065 9.49319 89.2126 9.33538 89.3552 9.21507C89.4979 9.09476 89.6713 9.01675 89.856 8.98984L95.5547 8.16171L98.103 2.99805C98.1951 2.8421 98.3263 2.71286 98.4836 2.62308C98.6409 2.5333 98.8189 2.48608 99 2.48608C99.1811 2.48608 99.3591 2.5333 99.5164 2.62308C99.6737 2.71286 99.8048 2.8421 99.8969 2.99805L102.445 8.16162L108.144 8.98975C108.329 9.01666 108.502 9.09467 108.645 9.21498C108.787 9.33529 108.894 9.4931 108.951 9.67056C109.009 9.84803 109.016 10.0381 108.971 10.2193C108.926 10.4004 108.832 10.5655 108.698 10.6958L104.575 14.7148L105.548 20.3905C105.573 20.5341 105.566 20.6813 105.528 20.8218C105.489 20.9624 105.421 21.0929 105.327 21.2042C105.233 21.3155 105.116 21.405 104.984 21.4664C104.852 21.5278 104.708 21.5596 104.562 21.5595L104.563 21.5596Z" fill="#C30C0C"/>
<path d="M108.951 9.67041C108.893 9.49298 108.787 9.33522 108.645 9.21494C108.502 9.09466 108.329 9.01666 108.144 8.98975L102.445 8.16162L99.897 2.99805C99.8101 2.83752 99.6801 2.70449 99.5216 2.61401C99.3631 2.52353 99.1824 2.4792 99 2.48605V18.7651L104.097 21.4448C104.262 21.5316 104.449 21.5705 104.635 21.5571C104.821 21.5436 104.999 21.4783 105.15 21.3687C105.301 21.259 105.419 21.1093 105.489 20.9364C105.559 20.7636 105.58 20.5745 105.548 20.3906L104.575 14.7148L108.698 10.6958C108.832 10.5655 108.926 10.4004 108.971 10.2192C109.016 10.038 109.009 9.84791 108.951 9.67041Z" fill="#888888"/>
<path d="M133.563 21.5596C133.4 21.5595 133.241 21.5201 133.097 21.4448L128 18.7651L122.903 21.4448C122.738 21.5316 122.551 21.5705 122.365 21.5571C122.179 21.5436 122.001 21.4783 121.85 21.3687C121.699 21.259 121.581 21.1093 121.511 20.9364C121.441 20.7636 121.42 20.5745 121.452 20.3906L122.425 14.7148L118.302 10.6958C118.168 10.5656 118.074 10.4005 118.029 10.2193C117.984 10.0382 117.991 9.84812 118.049 9.67065C118.106 9.49319 118.213 9.33538 118.355 9.21507C118.498 9.09476 118.671 9.01675 118.856 8.98984L124.555 8.16171L127.103 2.99805C127.195 2.8421 127.326 2.71286 127.484 2.62308C127.641 2.5333 127.819 2.48608 128 2.48608C128.181 2.48608 128.359 2.5333 128.516 2.62308C128.674 2.71286 128.805 2.8421 128.897 2.99805L131.445 8.16162L137.144 8.98975C137.329 9.01666 137.502 9.09467 137.645 9.21498C137.787 9.33529 137.894 9.4931 137.951 9.67056C138.009 9.84803 138.016 10.0381 137.971 10.2193C137.926 10.4004 137.832 10.5655 137.698 10.6958L133.575 14.7148L134.548 20.3905C134.573 20.5341 134.566 20.6813 134.528 20.8218C134.489 20.9624 134.421 21.0929 134.327 21.2042C134.233 21.3155 134.116 21.405 133.984 21.4664C133.852 21.5278 133.708 21.5596 133.562 21.5595L133.563 21.5596Z" fill="#888888"/>
<path d="M137.951 9.67041C137.893 9.49298 137.787 9.33522 137.645 9.21494C137.502 9.09466 137.329 9.01666 137.144 8.98975L131.445 8.16162L128.897 2.99805C128.81 2.83752 128.68 2.70449 128.522 2.61401C128.363 2.52353 128.182 2.4792 128 2.48605V18.7651L133.097 21.4448C133.262 21.5316 133.449 21.5705 133.635 21.5571C133.821 21.5436 133.999 21.4783 134.15 21.3687C134.301 21.259 134.419 21.1093 134.489 20.9364C134.559 20.7636 134.58 20.5745 134.548 20.3906L133.575 14.7148L137.698 10.6958C137.832 10.5655 137.926 10.4004 137.971 10.2192C138.016 10.038 138.009 9.84791 137.951 9.67041Z" fill="#888888"/>
</svg>
