<svg width="15" height="15" viewBox="0 0 15 15" fill="none" xmlns="http://www.w3.org/2000/svg">
<path d="M7.5 0.534056C3.65321 0.534056 0.534056 3.65321 0.534056 7.5C0.534056 11.3468 3.65321 14.466 7.5 14.466C11.3468 14.466 14.466 11.3468 14.466 7.5C14.466 3.65321 11.3468 0.534056 7.5 0.534056Z" stroke="white" stroke-miterlimit="10"/>
<path d="M6.43996 6.43995H7.65143V10.8315" stroke="white" stroke-linecap="round" stroke-linejoin="round"/>
<path d="M5.98544 10.983H9.31698" stroke="white" stroke-miterlimit="10" stroke-linecap="round"/>
<path d="M7.49965 3.0327C7.30497 3.0327 7.11466 3.09043 6.95279 3.19859C6.79092 3.30675 6.66475 3.46048 6.59025 3.64034C6.51575 3.8202 6.49626 4.01811 6.53424 4.20905C6.57222 4.39999 6.66597 4.57538 6.80363 4.71304C6.94129 4.8507 7.11668 4.94444 7.30761 4.98242C7.49855 5.0204 7.69647 5.00091 7.87633 4.92641C8.05619 4.85191 8.20992 4.72575 8.31808 4.56388C8.42623 4.40201 8.48396 4.2117 8.48396 4.01702C8.48396 3.75596 8.38026 3.5056 8.19566 3.321C8.01107 3.13641 7.7607 3.0327 7.49965 3.0327Z" fill="white"/>
</svg>
