<svg width="19" height="29" viewBox="0 0 19 29" fill="none" xmlns="http://www.w3.org/2000/svg">
<path d="M16.8501 17.0607C16.9863 17.6792 16.6261 18.299 16.0212 18.4868L13.3152 19.3401L12.2059 19.6936L10.8773 20.9125L9.26828 22.3996C9.03863 22.6007 8.74465 22.7131 8.4394 22.7165C8.1331 22.7188 7.83718 22.6057 7.61052 22.3996L6.00152 20.9125L4.67287 19.6936L3.56363 19.3401L0.857583 18.4868C0.25274 18.299 -0.107468 17.6792 0.0287027 17.0607L0.894152 13.16L0.0287027 9.25942C-0.107468 8.64089 0.25274 8.02112 0.857583 7.83326L4.67287 6.61432L7.61052 3.90827C8.07805 3.47467 8.80075 3.47467 9.26828 3.90827L12.2059 6.61432L16.0212 7.83326C16.6261 8.02112 16.9863 8.64089 16.8501 9.25942L15.9847 13.16L16.8501 17.0607Z" fill="#C30C0C"/>
<path d="M16.8501 17.0607C16.9863 17.6792 16.6261 18.299 16.0212 18.4868L13.3152 19.3401L12.2059 19.6936L10.8773 20.9125L9.26828 22.3996C9.03863 22.6007 8.74465 22.7131 8.4394 22.7165C8.1331 22.7188 7.83718 22.6057 7.61052 22.3996L6.00152 20.9125L4.67287 19.6936L3.56363 19.3401L0.857583 18.4868C0.25274 18.299 -0.107468 17.6792 0.0287027 17.0607L0.894152 13.16L0.0287027 9.25942C-0.107468 8.64089 0.25274 8.02112 0.857583 7.83326L4.67287 6.61432L7.61052 3.90827C8.07805 3.47467 8.80075 3.47467 9.26828 3.90827L12.2059 6.61432L16.0212 7.83326C16.6261 8.02112 16.9863 8.64089 16.8501 9.25942L15.9847 13.16L16.8501 17.0607Z" fill="#C30C0C"/>
<path d="M13.3151 20.62V27.7873C13.3139 28.2366 13.0657 28.6488 12.6691 28.86C12.2811 29.0592 11.8163 29.036 11.4501 28.7991L8.43935 26.8122L5.45294 28.7991C5.07948 29.045 4.60131 29.0667 4.20709 28.8556C3.81287 28.6445 3.56589 28.2345 3.56358 27.7873V20.62L4.05116 20.7784L6.79378 23.3138C7.72709 24.1735 9.1638 24.1735 10.0971 23.3138L12.8275 20.8028L13.3151 20.62Z" fill="#C30C0C"/>
<path d="M13.3151 20.62V27.7873C13.3139 28.2366 13.0657 28.6488 12.6691 28.86C12.2811 29.0592 11.8163 29.036 11.4501 28.7991L8.43935 26.8122L5.45294 28.7991C5.07948 29.045 4.60131 29.0667 4.20709 28.8556C3.81287 28.6445 3.56589 28.2345 3.56358 27.7873V20.62L4.05116 20.7784L6.79378 23.3138C7.72709 24.1735 9.1638 24.1735 10.0971 23.3138L12.8275 20.8028L13.3151 20.62Z" fill="#C30C0C"/>
<circle cx="15.9938" cy="2.54169" r="2.54169" fill="#C30C0C"/>
</svg>
