<svg width="18" height="18" viewBox="0 0 18 18" fill="none" xmlns="http://www.w3.org/2000/svg">
<path fill-rule="evenodd" clip-rule="evenodd" d="M9.00005 3.1875C11.8276 3.1875 14.4601 5.1225 16.4101 8.6325C16.544 8.86455 16.544 9.15045 16.4101 9.3825C14.4601 12.8925 11.8276 14.8275 9.00005 14.8275C6.17255 14.8275 3.54755 12.8925 1.59755 9.3825C1.46358 9.15045 1.46358 8.86455 1.59755 8.6325C3.54755 5.1225 6.17255 3.1875 9.00005 3.1875ZM3.13505 8.9775C3.36516 9.37506 3.61549 9.76056 3.88505 10.1325C3.70511 9.37301 3.70511 8.58199 3.88505 7.8225C3.61549 8.19444 3.36516 8.57994 3.13505 8.9775ZM9.00005 12.75C6.92898 12.75 5.25005 11.0711 5.25005 9C5.25005 6.92893 6.92898 5.25 9.00005 5.25C11.0711 5.25 12.7501 6.92893 12.7501 9C12.7501 11.0711 11.0711 12.75 9.00005 12.75ZM14.8651 9C14.6366 8.59899 14.3863 8.2109 14.1151 7.8375C14.2952 8.60204 14.2952 9.39796 14.1151 10.1625C14.3863 9.7891 14.6366 9.40101 14.8651 9Z" fill="white"/>
</svg>
