<svg width="17" height="24" viewBox="0 0 17 24" fill="none" xmlns="http://www.w3.org/2000/svg">
<path d="M15.4998 22.9733L15.4996 22.9732L8.89958 19.1669L8.4 18.8788L7.90042 19.1669L1.30062 22.9731C1.3006 22.9731 1.30057 22.9731 1.30055 22.9731C1.30051 22.9731 1.30046 22.9732 1.30042 22.9732C1.27 22.9907 1.23552 22.9999 1.20043 22.9999C1.16524 22.9998 1.1307 22.9906 1.10024 22.973L0.600156 23.839L1.10023 22.973C1.06978 22.9554 1.04448 22.9301 1.02689 22.8996L0.163872 23.3982L1.02688 22.8996C1.00931 22.8692 1.00004 22.8347 1 22.7996V3.60059C1.00089 2.91115 1.27515 2.2502 1.76267 1.76267C2.25019 1.27515 2.91115 1.00089 3.60059 1H13.1994C13.8889 1.00089 14.5498 1.27515 15.0373 1.76267C15.5248 2.25013 15.799 2.91097 15.8 3.60032C15.8 3.60058 15.8 3.60083 15.8 3.60109L15.8 22.7993C15.8 22.8525 15.7788 22.9035 15.7412 22.9412L16.4483 23.6483L15.7412 22.9412C15.7035 22.9788 15.6525 23 15.5993 23C15.5643 23 15.53 22.9907 15.4998 22.9733Z" stroke="white" stroke-width="2"/>
</svg>
