<svg width="327" height="26" viewBox="0 0 327 26" fill="none" xmlns="http://www.w3.org/2000/svg">
<path d="M244.5 24.449L244.5 24.4489L237.9 20.6426L237.4 20.3545L236.9 20.6426L230.301 24.4488C230.301 24.4488 230.301 24.4488 230.301 24.4488C230.301 24.4488 230.3 24.4489 230.3 24.4489C230.27 24.4664 230.236 24.4756 230.2 24.4756C230.165 24.4755 230.131 24.4663 230.1 24.4487L229.6 25.3147L230.1 24.4487C230.07 24.4311 230.044 24.4058 230.027 24.3754L229.164 24.8739L230.027 24.3753C230.009 24.3449 230 24.3104 230 24.2753V5.0763C230.001 4.38685 230.275 3.7259 230.763 3.23838C231.25 2.75086 231.911 2.47659 232.601 2.47571H242.199C242.889 2.47659 243.55 2.75086 244.037 3.23838C244.525 3.72584 244.799 4.38668 244.8 5.07603C244.8 5.07629 244.8 5.07654 244.8 5.0768L244.8 24.275C244.8 24.3282 244.779 24.3792 244.741 24.4169L245.448 25.124L244.741 24.4169C244.704 24.4545 244.653 24.4757 244.599 24.4757C244.564 24.4757 244.53 24.4665 244.5 24.449Z" stroke="white" stroke-width="2"/>
<path d="M17.0001 7.49964L11.0001 2.23964C10.4501 1.74769 9.73803 1.47571 9.00009 1.47571C8.26216 1.47571 7.55012 1.74769 7.00009 2.23964L1.00009 7.49964C0.682463 7.78371 0.428995 8.1322 0.256567 8.52188C0.0841385 8.91157 -0.00329256 9.33352 9.47941e-05 9.75964V18.4996C9.47941e-05 19.2953 0.316165 20.0584 0.878775 20.621C1.44138 21.1836 2.20445 21.4996 3.00009 21.4996H15.0001C15.7957 21.4996 16.5588 21.1836 17.1214 20.621C17.684 20.0584 18.0001 19.2953 18.0001 18.4996V9.74964C18.0021 9.3252 17.9139 8.90518 17.7416 8.51732C17.5692 8.12946 17.3165 7.7826 17.0001 7.49964ZM11.0001 18.4996C11.0001 19.0519 10.5524 19.4996 10.0001 19.4996H8.00009C7.44781 19.4996 7.00009 19.0519 7.00009 18.4996V14.4996C7.00009 14.2344 7.10545 13.9801 7.29299 13.7925C7.48052 13.605 7.73488 13.4996 8.00009 13.4996H10.0001C10.2653 13.4996 10.5197 13.605 10.7072 13.7925C10.8947 13.9801 11.0001 14.2344 11.0001 14.4996V18.4996ZM16.0001 18.4996C16.0001 18.7649 15.8947 19.0192 15.7072 19.2067C15.5197 19.3943 15.2653 19.4996 15.0001 19.4996H13.0001V14.4996C13.0001 13.704 12.684 12.9409 12.1214 12.3783C11.5588 11.8157 10.7957 11.4996 10.0001 11.4996H8.00009C7.20444 11.4996 6.44138 11.8157 5.87877 12.3783C5.31616 12.9409 5.00009 13.704 5.00009 14.4996V19.4996H3.00009C2.73488 19.4996 2.48052 19.3943 2.29299 19.2067C2.10545 19.0192 2.00009 18.7649 2.00009 18.4996V9.74964C2.00027 9.60765 2.03069 9.46734 2.08931 9.33802C2.14794 9.2087 2.23343 9.09335 2.3401 8.99964L8.34009 3.74964C8.52258 3.58932 8.75719 3.50091 9.00009 3.50091C9.243 3.50091 9.47761 3.58932 9.66009 3.74964L15.6601 8.99964C15.7668 9.09335 15.8523 9.2087 15.9109 9.33802C15.9695 9.46734 15.9999 9.60765 16.0001 9.74964V18.4996Z" fill="white"/>
<path d="M95.7309 19.7866L92.0209 16.1066C93.461 14.311 94.1584 12.0319 93.9697 9.73791C93.781 7.44391 92.7206 5.30939 91.0064 3.77325C89.2923 2.23711 87.0547 1.41612 84.7538 1.47908C82.4529 1.54204 80.2636 2.48417 78.636 4.11175C77.0085 5.73933 76.0663 7.92865 76.0034 10.2295C75.9404 12.5304 76.7614 14.768 78.2975 16.4821C79.8337 18.1963 81.9682 19.2567 84.2622 19.4454C86.5562 19.6341 88.8353 18.9367 90.6309 17.4966L94.3109 21.1766C94.4039 21.2703 94.5145 21.3447 94.6363 21.3955C94.7582 21.4463 94.8889 21.4724 95.0209 21.4724C95.1529 21.4724 95.2836 21.4463 95.4055 21.3955C95.5273 21.3447 95.6379 21.2703 95.7309 21.1766C95.9111 20.9901 96.0119 20.7409 96.0119 20.4816C96.0119 20.2223 95.9111 19.9731 95.7309 19.7866ZM85.0209 17.4966C83.6364 17.4966 82.2831 17.0861 81.1319 16.3169C79.9808 15.5477 79.0836 14.4545 78.5537 13.1754C78.0239 11.8963 77.8853 10.4888 78.1554 9.13098C78.4255 7.77311 79.0922 6.52583 80.0712 5.54686C81.0501 4.56789 82.2974 3.90121 83.6553 3.63111C85.0131 3.36101 86.4206 3.49964 87.6997 4.02945C88.9788 4.55927 90.072 5.45647 90.8412 6.60762C91.6104 7.75876 92.0209 9.11214 92.0209 10.4966C92.0209 12.3531 91.2834 14.1336 89.9706 15.4464C88.6579 16.7591 86.8774 17.4966 85.0209 17.4966Z" fill="white"/>
<path fill-rule="evenodd" clip-rule="evenodd" d="M326.182 10.0047L324.608 9.4882L325.353 8.02291C325.59 7.56061 325.503 6.99849 325.137 6.62969L321.846 3.32678C321.477 2.96104 320.915 2.87382 320.453 3.11059L318.988 3.86726L318.471 2.30588C318.304 1.79022 317.812 1.45066 317.27 1.47716H312.67C312.128 1.45066 311.636 1.79022 311.469 2.30588L311.012 3.86726L309.547 3.11059C309.085 2.87382 308.523 2.96104 308.154 3.32678L304.851 6.62969C304.485 6.99849 304.398 7.56061 304.635 8.02291L305.392 9.4882L303.83 10.0047C303.315 10.1721 302.975 10.6642 303.001 11.2057V15.8658C302.975 16.4073 303.315 16.8994 303.83 17.0669L305.392 17.5833L304.647 19.0486C304.41 19.5109 304.497 20.073 304.863 20.4418L308.154 23.6246C308.523 23.9904 309.085 24.0776 309.547 23.8408L311.012 23.0842L311.529 24.6455C311.696 25.1612 312.188 25.5008 312.73 25.4743H317.39C317.932 25.5008 318.424 25.1612 318.591 24.6455L319.108 23.0842L320.573 23.8288C321.035 24.0656 321.597 23.9784 321.966 23.6126L325.269 20.3097C325.635 19.9409 325.722 19.3788 325.485 18.9165L324.608 17.4632L326.17 16.9468C326.685 16.7793 327.025 16.2872 326.999 15.7457V11.1457C327 10.6293 326.671 10.1699 326.182 10.0047ZM308.995 13.4757C308.995 10.1591 311.683 7.47045 315 7.47045C316.593 7.47045 318.12 8.10315 319.246 9.22936C320.373 10.3556 321.005 11.883 321.005 13.4757C321.005 16.7924 318.317 19.481 315 19.481C311.683 19.481 308.995 16.7924 308.995 13.4757ZM311.397 13.4757C311.397 15.4657 313.01 17.0788 315 17.0788C315.956 17.0788 316.872 16.6992 317.548 16.0235C318.224 15.3478 318.603 14.4313 318.603 13.4757C318.603 11.4857 316.99 9.87251 315 9.87251C313.01 9.87251 311.397 11.4857 311.397 13.4757ZM323.876 15.1812L324.608 14.941V12.0104L323.876 11.7702C323.209 11.5549 322.669 11.0592 322.399 10.413C322.132 9.76417 322.163 9.03148 322.483 8.40722L322.831 7.71061L320.765 5.64479L320.068 5.99309C319.444 6.3079 318.714 6.33503 318.068 6.06741C317.422 5.79979 316.924 5.26398 316.706 4.59987L316.465 3.86722H313.535L313.295 4.59987C313.076 5.26398 312.578 5.79979 311.932 6.06741C311.286 6.33503 310.556 6.3079 309.932 5.99309L309.235 5.64479L307.169 7.71061L307.517 8.40722C307.837 9.03148 307.868 9.76417 307.602 10.413C307.331 11.0592 306.791 11.5549 306.124 11.7702L305.392 12.0104V14.941L306.124 15.1812C306.791 15.3965 307.331 15.8922 307.602 16.5384C307.868 17.1872 307.837 17.9199 307.517 18.5441L307.169 19.2407L309.235 21.3066L309.932 20.9583C310.556 20.6435 311.286 20.6163 311.932 20.8839C312.578 21.1516 313.076 21.6874 313.295 22.3515L313.535 23.0841H316.465L316.706 22.3515C316.924 21.6874 317.422 21.1516 318.068 20.8839C318.714 20.6163 319.444 20.6435 320.068 20.9583L320.765 21.3066L322.831 19.2407L322.483 18.5441C322.163 17.9199 322.132 17.1872 322.399 16.5384C322.669 15.8922 323.209 15.3965 323.876 15.1812Z" fill="white"/>
<path d="M169.342 13.2565C169.476 13.8649 169.122 14.4745 168.527 14.6593L165.865 15.4985L164.774 15.8462L163.467 17.0452L161.885 18.5079C161.659 18.7057 161.37 18.8163 161.07 18.8196C160.768 18.8218 160.477 18.7105 160.254 18.5079L158.672 17.0452L157.365 15.8462L156.274 15.4985L153.612 14.6593C153.017 14.4745 152.663 13.8649 152.797 13.2565L153.648 9.41987L152.797 5.58324C152.663 4.97485 153.017 4.36525 153.612 4.18047L157.365 2.98153L160.254 0.319865C160.714 -0.106622 161.425 -0.106622 161.885 0.319865L164.774 2.98153L168.527 4.18047C169.122 4.36525 169.476 4.97485 169.342 5.58324L168.491 9.41987L169.342 13.2565Z" fill="#C30C0C"/>
<path d="M165.865 16.7574V23.8072C165.864 24.2491 165.62 24.6546 165.23 24.8623C164.848 25.0582 164.391 25.0354 164.031 24.8023L161.069 22.8481L158.132 24.8023C157.765 25.0443 157.294 25.0656 156.907 24.858C156.519 24.6504 156.276 24.2471 156.274 23.8072V16.7574L156.753 16.9133L159.451 19.4071C160.369 20.2527 161.782 20.2527 162.7 19.4071L165.386 16.9373L165.865 16.7574Z" fill="#C30C0C"/>
</svg>
