<svg width="21" height="19" viewBox="0 0 21 19" fill="none" xmlns="http://www.w3.org/2000/svg">
<path d="M13.4031 7.65679L9.74092 16.5274C9.74073 16.5278 9.74054 16.5283 9.74036 16.5287C9.66892 16.6999 9.63192 16.8834 9.63145 17.0688C9.63098 17.2548 9.66726 17.439 9.7382 17.6109C9.80913 17.7828 9.91333 17.9389 10.0448 18.0704L10.0448 18.0704C10.1763 18.2019 10.3325 18.3062 10.5043 18.3771C10.6762 18.4481 10.8604 18.4844 11.0464 18.4839C11.2323 18.4835 11.4163 18.4463 11.5879 18.3745L11.3886 17.8984L11.5879 18.3745C11.7594 18.3027 11.9151 18.1977 12.0459 18.0656C12.1764 17.9338 12.2797 17.7776 12.3498 17.6059C12.3499 17.6055 12.3501 17.605 12.3503 17.6046L12.9636 16.1194H16.4519L17.0662 17.6068C17.0662 17.6069 17.0662 17.6069 17.0662 17.607C17.1728 17.8653 17.3537 18.0862 17.586 18.2416C17.8184 18.3971 18.0916 18.4801 18.3712 18.48H18.3714C18.6034 18.4799 18.8317 18.4226 19.0362 18.3132C19.2407 18.2038 19.4152 18.0458 19.5441 17.8529C19.6664 17.6699 19.7442 17.4609 19.7713 17.2427H19.97L19.6756 16.5297L16.0125 7.65679L16.0125 7.65678C15.9058 7.39848 15.7249 7.17765 15.4926 7.02226C15.2604 6.86688 14.9872 6.78393 14.7078 6.78393C14.4283 6.78393 14.1552 6.86688 13.9229 7.02226C13.6906 7.17765 13.5097 7.39848 13.4031 7.65678L13.4031 7.65679ZM15.2867 13.2963H14.1293L14.708 11.8945L15.2867 13.2963Z" stroke="white"/>
<path d="M9.57707 13.8831C9.7533 13.9253 9.93597 13.9331 10.1151 13.9063V14.6288L11.0492 13.3385C11.2685 13.0356 11.3586 12.658 11.2998 12.2887C11.2745 12.1297 11.2225 11.9779 11.1473 11.8389V11.4423L11.0102 11.6317C10.9324 11.5339 10.8414 11.4461 10.7388 11.3712C10.7352 11.3685 10.7283 11.3633 10.7178 11.3551C10.7018 11.3427 10.6772 11.3234 10.6446 11.297C10.5793 11.2441 10.4821 11.1629 10.3579 11.0522C10.1671 10.8822 9.91283 10.6427 9.61294 10.3298C10.9744 8.3778 11.8076 6.27052 12.2213 5.04857H13.1612C13.5355 5.04857 13.8946 4.89986 14.1593 4.63515C14.424 4.37044 14.5727 4.01141 14.5727 3.63706C14.5727 3.2627 14.424 2.90368 14.1593 2.63897C13.8946 2.37426 13.5355 2.22554 13.1612 2.22554H8.95591V1.9276C8.95591 1.55324 8.80719 1.19422 8.54248 0.929505C8.27777 0.664795 7.91875 0.516083 7.54439 0.516083C7.17004 0.516083 6.81101 0.664795 6.5463 0.929506C6.28159 1.19422 6.13288 1.55324 6.13288 1.9276V2.22554H1.9276C1.55324 2.22554 1.19422 2.37426 0.929505 2.63897C0.664795 2.90368 0.516083 3.2627 0.516083 3.63706C0.516083 4.01141 0.664795 4.37044 0.929505 4.63515L1.29443 4.27022L0.929506 4.63515C1.19422 4.89986 1.55324 5.04857 1.9276 5.04857H9.21275C8.87356 5.91238 8.3877 6.98515 7.74261 8.03354C6.87379 6.79776 6.51778 6.01173 6.48883 5.94781C6.4881 5.94619 6.48757 5.94504 6.48726 5.94435L6.48729 5.94433L6.48318 5.93484C6.33565 5.59389 6.05965 5.32484 5.71504 5.18606C5.37043 5.04728 4.985 5.04995 4.64235 5.1935C4.2997 5.33704 4.02746 5.60989 3.88466 5.95285C3.74187 6.29582 3.74005 6.68125 3.87958 7.02555L3.87954 7.02557L3.88211 7.03167C3.91966 7.12101 4.47331 8.41267 5.94899 10.3643C4.48989 11.9434 3.11451 12.9146 2.55272 13.2245C2.22467 13.4038 1.98115 13.706 1.87564 14.0647L2.36212 14.2078L1.87564 14.0647C1.77 14.4239 1.81136 14.8103 1.99062 15.1389C2.16988 15.4676 2.47236 15.7116 2.83152 15.8172C3.19067 15.9229 3.57709 15.8815 3.90575 15.7022L3.90605 15.7021C4.0224 15.6385 5.75471 14.6751 7.80259 12.517C8.52335 13.2426 9.01006 13.605 9.07816 13.6537C9.22785 13.7621 9.39735 13.84 9.57707 13.8831Z" stroke="white"/>
</svg>
