<svg width="24" height="24" viewBox="0 0 24 24" fill="none" xmlns="http://www.w3.org/2000/svg">
<path fill-rule="evenodd" clip-rule="evenodd" d="M23.1818 8.52895L21.6084 8.01249L22.3531 6.5472C22.5899 6.0849 22.5027 5.52279 22.1369 5.15398L18.846 1.85107C18.4772 1.48534 17.9151 1.39811 17.4528 1.63488L15.9875 2.39155L15.4711 0.830177C15.3036 0.314517 14.8115 -0.0250501 14.27 0.00144767H9.66995C9.12844 -0.0250501 8.63632 0.314517 8.46889 0.830177L8.01249 2.39155L6.5472 1.63488C6.0849 1.39811 5.52279 1.48534 5.15398 1.85107L1.85107 5.15398C1.48534 5.52279 1.39811 6.0849 1.63488 6.5472L2.39155 8.01249L0.830177 8.52895C0.314517 8.69637 -0.0250501 9.18849 0.00144767 9.73V14.3901C-0.0250501 14.9316 0.314517 15.4237 0.830177 15.5912L2.39155 16.1076L1.64689 17.5729C1.41012 18.0352 1.49735 18.5973 1.86308 18.9661L5.15398 22.1489C5.52279 22.5147 6.0849 22.6019 6.5472 22.3651L8.01249 21.6084L8.52895 23.1698C8.69637 23.6855 9.18849 24.025 9.73 23.9986H14.3901C14.9316 24.025 15.4237 23.6855 15.5912 23.1698L16.1076 21.6084L17.5729 22.3531C18.0352 22.5899 18.5973 22.5027 18.9661 22.1369L22.269 18.834C22.6348 18.4652 22.722 17.9031 22.4852 17.4408L21.6084 15.9875L23.1698 15.4711C23.6855 15.3036 24.025 14.8115 23.9986 14.27V9.66995C23.9999 9.1536 23.671 8.69418 23.1818 8.52895ZM5.99471 12C5.99471 8.6834 8.68337 5.99475 12 5.99475C13.5927 5.99475 15.1202 6.62744 16.2464 7.75365C17.3726 8.87986 18.0053 10.4073 18.0053 12C18.0053 15.3167 15.3166 18.0053 12 18.0053C8.68337 18.0053 5.99471 15.3167 5.99471 12ZM8.3968 12C8.3968 13.9899 10.01 15.6031 12 15.6031C12.9556 15.6031 13.8721 15.2235 14.5478 14.5478C15.2235 13.8721 15.6031 12.9556 15.6031 12C15.6031 10.01 13.9899 8.3968 12 8.3968C10.01 8.3968 8.3968 10.01 8.3968 12ZM20.8758 13.7055L21.6085 13.4653V10.5347L20.8758 10.2945C20.209 10.0792 19.6695 9.58348 19.3985 8.93727C19.1324 8.28847 19.1632 7.55577 19.4826 6.93151L19.8309 6.2349L17.7651 4.16908L17.0685 4.51739C16.4441 4.83219 15.7136 4.85932 15.0676 4.5917C14.4216 4.32408 13.9243 3.78827 13.7055 3.12416L13.4653 2.39152H10.5347L10.2945 3.12416C10.0757 3.78827 9.57842 4.32408 8.93244 4.5917C8.28645 4.85932 7.55592 4.83219 6.93157 4.51739L6.23496 4.16908L4.16914 6.2349L4.51745 6.93151C4.83691 7.55577 4.86762 8.28847 4.60152 8.93727C4.33061 9.58348 3.79104 10.0792 3.12422 10.2945L2.39158 10.5347V13.4653L3.12422 13.7055C3.79104 13.9207 4.33061 14.4165 4.60152 15.0627C4.86762 15.7115 4.83691 16.4442 4.51745 17.0684L4.16914 17.765L6.23496 19.8309L6.93157 19.4825C7.55592 19.1677 8.28645 19.1406 8.93244 19.4082C9.57842 19.6759 10.0757 20.2117 10.2945 20.8758L10.5347 21.6084H13.4653L13.7055 20.8758C13.9243 20.2117 14.4216 19.6759 15.0676 19.4082C15.7136 19.1406 16.4441 19.1677 17.0685 19.4825L17.7651 19.8309L19.8309 17.765L19.4826 17.0684C19.1632 16.4442 19.1324 15.7115 19.3985 15.0627C19.6695 14.4165 20.209 13.9207 20.8758 13.7055Z" fill="white"/>
</svg>
