<svg width="327" height="25" viewBox="0 0 327 25" fill="none" xmlns="http://www.w3.org/2000/svg">
<path d="M244.5 22.9733L244.5 22.9732L237.9 19.1669L237.4 18.8788L236.9 19.1669L230.301 22.9731C230.301 22.9731 230.301 22.9731 230.301 22.9731C230.301 22.9731 230.3 22.9732 230.3 22.9732C230.27 22.9907 230.236 22.9999 230.2 22.9999C230.165 22.9998 230.131 22.9906 230.1 22.973L229.6 23.839L230.1 22.973C230.07 22.9554 230.044 22.9301 230.027 22.8996L229.164 23.3982L230.027 22.8996C230.009 22.8692 230 22.8347 230 22.7996V3.60059C230.001 2.91115 230.275 2.2502 230.763 1.76267C231.25 1.27515 231.911 1.00089 232.601 1H242.199C242.889 1.00089 243.55 1.27515 244.037 1.76267C244.525 2.25013 244.799 2.91097 244.8 3.60032C244.8 3.60058 244.8 3.60083 244.8 3.60109L244.8 22.7993C244.8 22.8525 244.779 22.9035 244.741 22.9412L245.448 23.6483L244.741 22.9412C244.704 22.9788 244.653 23 244.599 23C244.564 23 244.53 22.9907 244.5 22.9733Z" stroke="white" stroke-width="2"/>
<path d="M17.0001 6.02393L11.0001 0.763932C10.4501 0.271977 9.73803 0 9.00009 0C8.26216 0 7.55012 0.271977 7.00009 0.763932L1.00009 6.02393C0.682463 6.30801 0.428995 6.65649 0.256567 7.04618C0.0841385 7.43586 -0.00329256 7.85781 9.47941e-05 8.28393V17.0239C9.47941e-05 17.8196 0.316165 18.5826 0.878775 19.1453C1.44138 19.7079 2.20445 20.0239 3.00009 20.0239H15.0001C15.7957 20.0239 16.5588 19.7079 17.1214 19.1453C17.684 18.5826 18.0001 17.8196 18.0001 17.0239V8.27393C18.0021 7.84949 17.9139 7.42947 17.7416 7.04161C17.5692 6.65375 17.3165 6.30689 17.0001 6.02393ZM11.0001 17.0239C11.0001 17.5762 10.5524 18.0239 10.0001 18.0239H8.00009C7.44781 18.0239 7.00009 17.5762 7.00009 17.0239V13.0239C7.00009 12.7587 7.10545 12.5044 7.29299 12.3168C7.48052 12.1293 7.73488 12.0239 8.00009 12.0239H10.0001C10.2653 12.0239 10.5197 12.1293 10.7072 12.3168C10.8947 12.5044 11.0001 12.7587 11.0001 13.0239V17.0239ZM16.0001 17.0239C16.0001 17.2891 15.8947 17.5435 15.7072 17.731C15.5197 17.9186 15.2653 18.0239 15.0001 18.0239H13.0001V13.0239C13.0001 12.2283 12.684 11.4652 12.1214 10.9026C11.5588 10.34 10.7957 10.0239 10.0001 10.0239H8.00009C7.20444 10.0239 6.44138 10.34 5.87877 10.9026C5.31616 11.4652 5.00009 12.2283 5.00009 13.0239V18.0239H3.00009C2.73488 18.0239 2.48052 17.9186 2.29299 17.731C2.10545 17.5435 2.00009 17.2891 2.00009 17.0239V8.27393C2.00027 8.13195 2.03069 7.99163 2.08931 7.86231C2.14794 7.73299 2.23343 7.61764 2.3401 7.52393L8.34009 2.27393C8.52258 2.11361 8.75719 2.0252 9.00009 2.0252C9.243 2.0252 9.47761 2.11361 9.66009 2.27393L15.6601 7.52393C15.7668 7.61764 15.8523 7.73299 15.9109 7.86231C15.9695 7.99163 15.9999 8.13195 16.0001 8.27393V17.0239Z" fill="white"/>
<path d="M95.7309 18.3109L92.0209 14.6309C93.461 12.8353 94.1584 10.5562 93.9697 8.2622C93.781 5.9682 92.7206 3.83368 91.0064 2.29754C89.2923 0.761407 87.0547 -0.0595894 84.7538 0.00337096C82.4529 0.0663314 80.2636 1.00846 78.636 2.63604C77.0085 4.26362 76.0663 6.45294 76.0034 8.75382C75.9404 11.0547 76.7614 13.2923 78.2975 15.0064C79.8337 16.7206 81.9682 17.781 84.2622 17.9697C86.5562 18.1584 88.8353 17.461 90.6309 16.0209L94.3109 19.7009C94.4039 19.7946 94.5145 19.869 94.6363 19.9198C94.7582 19.9706 94.8889 19.9967 95.0209 19.9967C95.1529 19.9967 95.2836 19.9706 95.4055 19.9198C95.5273 19.869 95.6379 19.7946 95.7309 19.7009C95.9111 19.5144 96.0119 19.2652 96.0119 19.0059C96.0119 18.7466 95.9111 18.4974 95.7309 18.3109ZM85.0209 16.0209C83.6364 16.0209 82.2831 15.6104 81.1319 14.8412C79.9808 14.072 79.0836 12.9788 78.5537 11.6997C78.0239 10.4206 77.8853 9.01314 78.1554 7.65527C78.4255 6.2974 79.0922 5.05012 80.0712 4.07115C81.0501 3.09219 82.2974 2.4255 83.6553 2.1554C85.0131 1.88531 86.4206 2.02393 87.6997 2.55374C88.9788 3.08356 90.072 3.98076 90.8412 5.13191C91.6104 6.28305 92.0209 7.63643 92.0209 9.0209C92.0209 10.8774 91.2834 12.6579 89.9706 13.9706C88.6579 15.2834 86.8774 16.0209 85.0209 16.0209Z" fill="#E5E5E5"/>
<path fill-rule="evenodd" clip-rule="evenodd" d="M326.182 8.52895L324.608 8.01249L325.353 6.5472C325.59 6.0849 325.503 5.52279 325.137 5.15398L321.846 1.85107C321.477 1.48534 320.915 1.39811 320.453 1.63488L318.988 2.39155L318.471 0.830177C318.304 0.314517 317.812 -0.0250501 317.27 0.00144767H312.67C312.128 -0.0250501 311.636 0.314517 311.469 0.830177L311.012 2.39155L309.547 1.63488C309.085 1.39811 308.523 1.48534 308.154 1.85107L304.851 5.15398C304.485 5.52279 304.398 6.0849 304.635 6.5472L305.392 8.01249L303.83 8.52895C303.315 8.69637 302.975 9.18849 303.001 9.73V14.3901C302.975 14.9316 303.315 15.4237 303.83 15.5912L305.392 16.1076L304.647 17.5729C304.41 18.0352 304.497 18.5973 304.863 18.9661L308.154 22.1489C308.523 22.5147 309.085 22.6019 309.547 22.3651L311.012 21.6084L311.529 23.1698C311.696 23.6855 312.188 24.025 312.73 23.9986H317.39C317.932 24.025 318.424 23.6855 318.591 23.1698L319.108 21.6084L320.573 22.3531C321.035 22.5899 321.597 22.5027 321.966 22.1369L325.269 18.834C325.635 18.4652 325.722 17.9031 325.485 17.4408L324.608 15.9875L326.17 15.4711C326.685 15.3036 327.025 14.8115 326.999 14.27V9.66995C327 9.1536 326.671 8.69418 326.182 8.52895ZM308.995 12C308.995 8.6834 311.683 5.99475 315 5.99475C316.593 5.99475 318.12 6.62744 319.246 7.75365C320.373 8.87986 321.005 10.4073 321.005 12C321.005 15.3167 318.317 18.0053 315 18.0053C311.683 18.0053 308.995 15.3167 308.995 12ZM311.397 12C311.397 13.9899 313.01 15.6031 315 15.6031C315.956 15.6031 316.872 15.2235 317.548 14.5478C318.224 13.8721 318.603 12.9556 318.603 12C318.603 10.01 316.99 8.3968 315 8.3968C313.01 8.3968 311.397 10.01 311.397 12ZM323.876 13.7055L324.608 13.4653V10.5347L323.876 10.2945C323.209 10.0792 322.669 9.58348 322.399 8.93727C322.132 8.28847 322.163 7.55577 322.483 6.93151L322.831 6.2349L320.765 4.16908L320.068 4.51739C319.444 4.83219 318.714 4.85932 318.068 4.5917C317.422 4.32408 316.924 3.78827 316.706 3.12416L316.465 2.39152H313.535L313.295 3.12416C313.076 3.78827 312.578 4.32408 311.932 4.5917C311.286 4.85932 310.556 4.83219 309.932 4.51739L309.235 4.16908L307.169 6.2349L307.517 6.93151C307.837 7.55577 307.868 8.28847 307.602 8.93727C307.331 9.58348 306.791 10.0792 306.124 10.2945L305.392 10.5347V13.4653L306.124 13.7055C306.791 13.9207 307.331 14.4165 307.602 15.0627C307.868 15.7115 307.837 16.4442 307.517 17.0684L307.169 17.765L309.235 19.8309L309.932 19.4825C310.556 19.1677 311.286 19.1406 311.932 19.4082C312.578 19.6759 313.076 20.2117 313.295 20.8758L313.535 21.6084H316.465L316.706 20.8758C316.924 20.2117 317.422 19.6759 318.068 19.4082C318.714 19.1406 319.444 19.1677 320.068 19.4825L320.765 19.8309L322.831 17.765L322.483 17.0684C322.163 16.4442 322.132 15.7115 322.399 15.0627C322.669 14.4165 323.209 13.9207 323.876 13.7055Z" fill="#C30C0C"/>
<path fill-rule="evenodd" clip-rule="evenodd" d="M170.582 13.2509L169.73 9.4124L170.582 5.57393C170.716 4.96525 170.361 4.35535 169.766 4.17048L166.011 2.97096L163.121 0.320018C162.661 -0.106673 161.949 -0.106673 161.489 0.320018L158.598 2.98296L154.844 4.18248C154.254 4.36699 153.901 4.96926 154.028 5.57393L154.88 9.4124L154.028 13.2509C153.894 13.8595 154.249 14.4694 154.844 14.6543L157.507 15.494V23.8067C157.509 24.2467 157.752 24.6502 158.14 24.8579C158.528 25.0657 158.999 25.0443 159.366 24.8023L162.305 22.847L165.244 24.8023C165.611 25.0443 166.082 25.0657 166.47 24.8579C166.858 24.6502 167.101 24.2467 167.103 23.8067V15.494L169.766 14.6543C170.361 14.4694 170.716 13.8595 170.582 13.2509ZM161.645 20.448L159.906 21.6475V17.0414L161.489 18.5048C161.712 18.7075 162.004 18.8189 162.305 18.8166C162.605 18.8133 162.895 18.7027 163.121 18.5048L164.704 17.0414V21.5636L162.965 20.448C162.564 20.1844 162.046 20.1844 161.645 20.448ZM164.584 13.9226C164.717 13.8052 164.872 13.7155 165.04 13.6587L168.003 12.6991L167.319 9.6763C167.283 9.5022 167.283 9.32261 167.319 9.14851L168.003 6.12572L165.04 5.20209C164.872 5.14535 164.717 5.05563 164.584 4.93819L162.305 2.83903L160.026 4.93819C159.893 5.05563 159.738 5.14535 159.57 5.20209L156.607 6.12572L157.291 9.14851C157.327 9.32261 157.327 9.5022 157.291 9.6763L156.607 12.6991L159.57 13.6227C159.738 13.6795 159.893 13.7692 160.026 13.8866L162.305 15.9858L164.584 13.9226Z" fill="white"/>
</svg>
